#!OML:ASF F:\VICON\USERDATA\INSTALL\rory3\rory3.ASF
:FULLY-SPECIFIED
:DEGREES
2386
root 4.73898 18.0606 -1.38494 355.639 -53.3273 5.822
lowerback 13.624 -4.33394 -3.87203
upperback 0.158497 -6.04046 5.79821
thorax -6.41587 -2.79565 9.56922
lowerneck 7.70089 -20.9551 -15.4503
upperneck 31.3377 -38.7543 14.8921
head 16.5204 -18.2238 2.19897
rclavicle 1.68569e-013 -7.95139e-015
rhumerus -27.8248 -7.75248 -78.2874
rradius 37.4504
rwrist -0.192593
rhand -17.6602 7.32936
rfingers 7.12502
rthumb 8.59824 -22.4756
lclavicle 1.68569e-013 -7.95139e-015
lhumerus -42.5144 10.1091 83.3671
lradius 35.9655
lwrist -5.98116
lhand -16.7146 26.4734
lfingers 7.12502
lthumb 9.51072 56.2388
rfemur -14.2056 6.13201 17.0131
rtibia 29.5592
rfoot -14.9727 10.0421
rtoes -0.944231
lfemur -12.8107 -3.563 -21.88
ltibia 50.695
lfoot -9.35992 -12.5892
ltoes -20.0061
2387
root 4.81146 18.0617 -1.43298 355.516 -53.5354 6.01077
lowerback 13.4245 -4.40609 -3.91271
upperback 0.165914 -6.14403 5.73677
thorax -6.27988 -2.85374 9.51483
lowerneck 7.66544 -20.9076 -15.2505
upperneck 31.3609 -38.6238 14.7602
head 16.4164 -18.1658 2.17748
rclavicle -3.57812e-014 4.29375e-014
rhumerus -27.8047 -7.92996 -78.3761
rradius 37.1968
rwrist -0.030517
rhand -17.468 7.45169
rfingers 7.12502
rthumb 8.78377 -22.3455
lclavicle -3.57812e-014 4.29375e-014
lhumerus -42.4632 10.1286 83.2886
lradius 35.9392
lwrist -6.09928
lhand -16.2369 26.3704
lfingers 7.12502
lthumb 9.97158 56.1142
rfemur -14.6255 6.03207 16.8056
rtibia 29.6021
rfoot -14.6549 10.5893
rtoes -0.166662
lfemur -11.7936 -3.45535 -22.1147
ltibia 50.2061
lfoot -9.06759 -12.9408
ltoes -20.1694
2388
root 4.8841 18.0615 -1.48186 355.422 -53.7272 6.11431
lowerback 13.2771 -4.36755 -3.89861
upperback 0.169368 -6.08836 5.74859
thorax -6.20438 -2.83105 9.49302
lowerneck 7.65901 -20.9506 -15.1993
upperneck 31.2925 -38.6398 14.7159
head 16.3563 -18.1726 2.15789
rclavicle 8.82604e-014 -3.18055e-015
rhumerus -27.8284 -8.37295 -78.1882
rradius 36.9313
rwrist 0.184797
rhand -17.4471 7.4858
rfingers 7.12502
rthumb 8.80395 -22.3106
lclavicle 8.82604e-014 -3.18055e-015
lhumerus -42.3133 9.8981 83.473
lradius 35.8535
lwrist -6.17527
lhand -16.0452 26.5227
lfingers 7.12502
lthumb 10.1566 56.2576
rfemur -15.0032 6.04242 16.667
rtibia 29.6712
rfoot -14.3348 10.9595
rtoes 0.450842
lfemur -10.6875 -3.48906 -22.3121
ltibia 49.5276
lfoot -8.82954 -13.2059
ltoes -21.0896
2389
root 4.9577 18.0627 -1.53209 355.317 -53.9148 6.18034
lowerback 13.2755 -4.34353 -3.93152
upperback 0.0983579 -6.05682 5.81557
thorax -6.27498 -2.8083 9.58775
lowerneck 7.69362 -20.9784 -15.2709
upperneck 31.3277 -38.6729 14.6036
head 16.3548 -18.2005 2.12008
rclavicle 9.14409e-015 5.56597e-014
rhumerus -28.0315 -8.70224 -77.8304
rradius 36.7375
rwrist 0.574028
rhand -17.224 7.67847
rfingers 7.12502
rthumb 9.01917 -22.1087
lclavicle 9.14409e-015 5.56597e-014
lhumerus -42.3129 9.75288 83.6797
lradius 35.7949
lwrist -6.12076
lhand -16.1784 26.4701
lfingers 7.12502
lthumb 10.028 56.2112
rfemur -15.4069 6.04595 16.5908
rtibia 29.8009
rfoot -14.006 11.1613
rtoes 0.772378
lfemur -9.53125 -3.50702 -22.4547
ltibia 48.6753
lfoot -8.46414 -13.7258
ltoes -20.929
2390
root 5.03082 18.0658 -1.57742 355.014 -54.1374 6.41251
lowerback 13.2896 -4.42143 -4.08197
upperback 0.0853369 -6.18643 5.77278
thorax -6.26161 -2.86842 9.64902
lowerneck 7.60921 -20.9043 -15.1371
upperneck 31.5416 -38.5735 14.399
head 16.3622 -18.153 2.05555
rclavicle 8.3092e-014 -2.38542e-014
rhumerus -28.2039 -8.61544 -77.8781
rradius 36.6251
rwrist 0.715767
rhand -17.4928 7.59249
rfingers 7.12502
rthumb 8.75982 -22.2057
lclavicle 8.3092e-014 -2.38542e-014
lhumerus -42.3896 9.89753 83.4938
lradius 35.8198
lwrist -6.19855
lhand -15.935 26.4257
lfingers 7.12502
lthumb 10.2629 56.1553
rfemur -15.8238 5.8898 16.4494
rtibia 29.9994
rfoot -13.6289 11.5339
rtoes 1.36129
lfemur -8.26537 -3.47011 -22.7203
ltibia 47.6745
lfoot -7.82815 -14.3932
ltoes -14.2939
2391
root 5.10776 18.0608 -1.63057 354.865 -54.2944 6.68128
lowerback 13.1112 -4.4656 -4.27085
upperback 0.086959 -6.27397 5.72266
thorax -6.12929 -2.9138 9.69237
lowerneck 7.56546 -20.9033 -14.9327
upperneck 31.5512 -38.5346 14.3103
head 16.288 -18.1267 2.02153
rclavicle 2.42517e-014 1.43125e-014
rhumerus -28.2824 -8.6784 -77.9816
rradius 36.5343
rwrist 0.678985
rhand -18.0268 7.3322
rfingers 7.12502
rthumb 8.24444 -22.4869
lclavicle 2.42517e-014 1.43125e-014
lhumerus -42.297 9.89227 83.3647
lradius 35.8494
lwrist -6.32639
lhand -15.8084 26.4831
lfingers 7.12502
lthumb 10.385 56.2067
rfemur -16.4774 5.80329 16.2715
rtibia 30.2752
rfoot -13.0929 11.9617
rtoes 2.55268
lfemur -7.18781 -3.45644 -23.0102
ltibia 46.553
lfoot -7.30345 -14.8359
ltoes -15.5422
2392
root 5.18592 18.0487 -1.68783 354.745 -54.4123 6.94192
lowerback 12.9897 -4.44122 -4.47785
upperback 0.0166886 -6.2679 5.74437
thorax -6.11363 -2.90311 9.82585
lowerneck 7.72188 -20.9332 -14.9585
upperneck 31.3961 -38.5565 14.3473
head 16.1993 -18.1573 2.05816
rclavicle 7.03698e-014 2.38542e-014
rhumerus -28.4115 -8.94507 -77.791
rradius 36.4424
rwrist 0.465681
rhand -18.1019 7.17786
rfingers 7.12502
rthumb 8.17202 -22.6441
lclavicle 7.03698e-014 2.38542e-014
lhumerus -42.2148 9.89588 83.465
lradius 35.8508
lwrist -6.46017
lhand -16.2247 26.4324
lfingers 7.12502
lthumb 9.98334 56.1756
rfemur -17.1572 5.85727 16.0873
rtibia 30.595
rfoot -12.6227 12.2094
rtoes 3.62477
lfemur -6.15807 -3.43828 -23.315
ltibia 45.3137
lfoot -7.01048 -15.1183
ltoes -17.0869
